<mxfile host="app.diagrams.net" modified="2021-01-06T08:42:56.095Z" agent="5.0 (Windows NT 6.3; Win64; x64) AppleWebKit/537.36 (KHTML, like Gecko) Chrome/86.0.4240.193 Safari/537.36" etag="10FVhbcxUXa6Xu16u8sD" version="14.1.8" type="github">
  <diagram id="R2lEEEUBdFMjLlhIrx00" name="Page-1">
    <mxGraphModel dx="1422" dy="794" grid="0" gridSize="10" guides="0" tooltips="1" connect="0" arrows="0" fold="1" page="0" pageScale="1" pageWidth="850" pageHeight="1100" background="none" math="0" shadow="0" extFonts="Permanent Marker^https://fonts.googleapis.com/css?family=Permanent+Marker">
      <root>
        <mxCell id="0" />
        <mxCell id="1" parent="0" />
        <mxCell id="Jm6T7WrEDUmx-2x6mj27-170" value="" style="edgeStyle=entityRelationEdgeStyle;fontSize=12;html=1;endArrow=ERmandOne;startArrow=ERmandOne;" edge="1" parent="1" source="Jm6T7WrEDUmx-2x6mj27-166" target="Jm6T7WrEDUmx-2x6mj27-53">
          <mxGeometry width="100" height="100" relative="1" as="geometry">
            <mxPoint x="1332" y="882" as="sourcePoint" />
            <mxPoint x="1432" y="782" as="targetPoint" />
          </mxGeometry>
        </mxCell>
        <mxCell id="lb9JI9_FD7YLYeVPfku9-1" value="巡查记录" style="whiteSpace=wrap;html=1;align=center;fontFamily=仿宋;" parent="1" vertex="1">
          <mxGeometry x="100" y="269" width="100" height="40" as="geometry" />
        </mxCell>
        <mxCell id="lb9JI9_FD7YLYeVPfku9-2" value="巡查事项" style="whiteSpace=wrap;html=1;align=center;fontFamily=仿宋;" parent="1" vertex="1">
          <mxGeometry x="400" y="269" width="100" height="40" as="geometry" />
        </mxCell>
        <mxCell id="lb9JI9_FD7YLYeVPfku9-3" value="巡查报告" style="whiteSpace=wrap;html=1;align=center;fontFamily=仿宋;" parent="1" vertex="1">
          <mxGeometry x="100" y="459" width="100" height="40" as="geometry" />
        </mxCell>
        <mxCell id="lb9JI9_FD7YLYeVPfku9-4" value="巡查公文" style="whiteSpace=wrap;html=1;align=center;fontFamily=仿宋;" parent="1" vertex="1">
          <mxGeometry x="100" y="85" width="100" height="40" as="geometry" />
        </mxCell>
        <mxCell id="lb9JI9_FD7YLYeVPfku9-5" value="巡查照片" style="whiteSpace=wrap;html=1;align=center;fontFamily=仿宋;" parent="1" vertex="1">
          <mxGeometry x="400" y="99" width="100" height="40" as="geometry" />
        </mxCell>
        <mxCell id="lb9JI9_FD7YLYeVPfku9-7" value="巡查附件" style="whiteSpace=wrap;html=1;align=center;fontFamily=仿宋;" parent="1" vertex="1">
          <mxGeometry x="720" y="269" width="100" height="40" as="geometry" />
        </mxCell>
        <mxCell id="lb9JI9_FD7YLYeVPfku9-8" value="巡查路线" style="whiteSpace=wrap;html=1;align=center;fontFamily=仿宋;" parent="1" vertex="1">
          <mxGeometry x="330" y="459" width="100" height="40" as="geometry" />
        </mxCell>
        <mxCell id="lb9JI9_FD7YLYeVPfku9-9" value="巡查处置记录" style="whiteSpace=wrap;html=1;align=center;fontFamily=仿宋;" parent="1" vertex="1">
          <mxGeometry x="510" y="459" width="100" height="40" as="geometry" />
        </mxCell>
        <mxCell id="lb9JI9_FD7YLYeVPfku9-10" value="巡查处置附件" style="whiteSpace=wrap;html=1;align=center;fontFamily=仿宋;" parent="1" vertex="1">
          <mxGeometry x="415" y="619" width="100" height="40" as="geometry" />
        </mxCell>
        <mxCell id="lb9JI9_FD7YLYeVPfku9-11" value="巡查处置照片" style="whiteSpace=wrap;html=1;align=center;fontFamily=仿宋;" parent="1" vertex="1">
          <mxGeometry x="615" y="619" width="100" height="40" as="geometry" />
        </mxCell>
        <mxCell id="lb9JI9_FD7YLYeVPfku9-12" value="发现" style="shape=rhombus;perimeter=rhombusPerimeter;whiteSpace=wrap;html=1;align=center;fontFamily=仿宋;" parent="1" vertex="1">
          <mxGeometry x="240" y="259" width="120" height="60" as="geometry" />
        </mxCell>
        <mxCell id="lb9JI9_FD7YLYeVPfku9-13" value="" style="endArrow=none;html=1;rounded=0;entryX=0;entryY=0.5;entryDx=0;entryDy=0;fontFamily=仿宋;" parent="1" target="lb9JI9_FD7YLYeVPfku9-12" edge="1">
          <mxGeometry relative="1" as="geometry">
            <mxPoint x="200" y="289" as="sourcePoint" />
            <mxPoint x="270" y="289" as="targetPoint" />
          </mxGeometry>
        </mxCell>
        <mxCell id="lb9JI9_FD7YLYeVPfku9-14" value="1" style="resizable=0;html=1;align=right;verticalAlign=bottom;fontFamily=仿宋;" parent="lb9JI9_FD7YLYeVPfku9-13" connectable="0" vertex="1">
          <mxGeometry x="1" relative="1" as="geometry" />
        </mxCell>
        <mxCell id="lb9JI9_FD7YLYeVPfku9-15" value="" style="endArrow=none;html=1;rounded=0;exitX=1;exitY=0.5;exitDx=0;exitDy=0;entryX=0;entryY=0.5;entryDx=0;entryDy=0;fontFamily=仿宋;" parent="1" source="lb9JI9_FD7YLYeVPfku9-12" target="lb9JI9_FD7YLYeVPfku9-2" edge="1">
          <mxGeometry relative="1" as="geometry">
            <mxPoint x="330" y="369" as="sourcePoint" />
            <mxPoint x="490" y="369" as="targetPoint" />
          </mxGeometry>
        </mxCell>
        <mxCell id="lb9JI9_FD7YLYeVPfku9-16" value="N" style="resizable=0;html=1;align=right;verticalAlign=bottom;fontFamily=仿宋;" parent="lb9JI9_FD7YLYeVPfku9-15" connectable="0" vertex="1">
          <mxGeometry x="1" relative="1" as="geometry" />
        </mxCell>
        <mxCell id="lb9JI9_FD7YLYeVPfku9-17" value="撰写" style="shape=rhombus;perimeter=rhombusPerimeter;whiteSpace=wrap;html=1;align=center;fontFamily=仿宋;" parent="1" vertex="1">
          <mxGeometry x="90" y="359" width="120" height="60" as="geometry" />
        </mxCell>
        <mxCell id="lb9JI9_FD7YLYeVPfku9-18" value="" style="endArrow=none;html=1;rounded=0;exitX=0.5;exitY=1;exitDx=0;exitDy=0;entryX=0.5;entryY=0;entryDx=0;entryDy=0;fontFamily=仿宋;" parent="1" source="lb9JI9_FD7YLYeVPfku9-1" target="lb9JI9_FD7YLYeVPfku9-17" edge="1">
          <mxGeometry relative="1" as="geometry">
            <mxPoint x="280" y="379" as="sourcePoint" />
            <mxPoint x="440" y="379" as="targetPoint" />
          </mxGeometry>
        </mxCell>
        <mxCell id="lb9JI9_FD7YLYeVPfku9-19" value="1" style="resizable=0;html=1;align=right;verticalAlign=bottom;fontFamily=仿宋;" parent="lb9JI9_FD7YLYeVPfku9-18" connectable="0" vertex="1">
          <mxGeometry x="1" relative="1" as="geometry" />
        </mxCell>
        <mxCell id="lb9JI9_FD7YLYeVPfku9-20" value="" style="endArrow=none;html=1;rounded=0;exitX=0.5;exitY=1;exitDx=0;exitDy=0;entryX=0.5;entryY=0;entryDx=0;entryDy=0;fontFamily=仿宋;" parent="1" source="lb9JI9_FD7YLYeVPfku9-17" target="lb9JI9_FD7YLYeVPfku9-3" edge="1">
          <mxGeometry relative="1" as="geometry">
            <mxPoint x="300" y="409" as="sourcePoint" />
            <mxPoint x="460" y="409" as="targetPoint" />
          </mxGeometry>
        </mxCell>
        <mxCell id="lb9JI9_FD7YLYeVPfku9-21" value="N" style="resizable=0;html=1;align=right;verticalAlign=bottom;fontFamily=仿宋;" parent="lb9JI9_FD7YLYeVPfku9-20" connectable="0" vertex="1">
          <mxGeometry x="1" relative="1" as="geometry" />
        </mxCell>
        <mxCell id="lb9JI9_FD7YLYeVPfku9-22" value="撰写" style="shape=rhombus;perimeter=rhombusPerimeter;whiteSpace=wrap;html=1;align=center;fontFamily=仿宋;" parent="1" vertex="1">
          <mxGeometry x="90" y="169" width="120" height="60" as="geometry" />
        </mxCell>
        <mxCell id="lb9JI9_FD7YLYeVPfku9-23" value="" style="endArrow=none;html=1;rounded=0;exitX=0.5;exitY=0;exitDx=0;exitDy=0;entryX=0.5;entryY=1;entryDx=0;entryDy=0;fontFamily=仿宋;" parent="1" source="lb9JI9_FD7YLYeVPfku9-1" target="lb9JI9_FD7YLYeVPfku9-22" edge="1">
          <mxGeometry relative="1" as="geometry">
            <mxPoint x="200" y="229" as="sourcePoint" />
            <mxPoint x="360" y="229" as="targetPoint" />
          </mxGeometry>
        </mxCell>
        <mxCell id="lb9JI9_FD7YLYeVPfku9-24" value="1" style="resizable=0;html=1;align=right;verticalAlign=bottom;fontFamily=仿宋;" parent="lb9JI9_FD7YLYeVPfku9-23" connectable="0" vertex="1">
          <mxGeometry x="1" relative="1" as="geometry">
            <mxPoint y="40" as="offset" />
          </mxGeometry>
        </mxCell>
        <mxCell id="lb9JI9_FD7YLYeVPfku9-25" value="" style="endArrow=none;html=1;rounded=0;exitX=0.5;exitY=0;exitDx=0;exitDy=0;entryX=0.5;entryY=1;entryDx=0;entryDy=0;fontFamily=仿宋;" parent="1" source="lb9JI9_FD7YLYeVPfku9-22" target="lb9JI9_FD7YLYeVPfku9-4" edge="1">
          <mxGeometry relative="1" as="geometry">
            <mxPoint x="280" y="139" as="sourcePoint" />
            <mxPoint x="440" y="139" as="targetPoint" />
          </mxGeometry>
        </mxCell>
        <mxCell id="lb9JI9_FD7YLYeVPfku9-26" value="N" style="resizable=0;html=1;align=right;verticalAlign=bottom;fontFamily=仿宋;" parent="lb9JI9_FD7YLYeVPfku9-25" connectable="0" vertex="1">
          <mxGeometry x="1" relative="1" as="geometry">
            <mxPoint y="30" as="offset" />
          </mxGeometry>
        </mxCell>
        <mxCell id="lb9JI9_FD7YLYeVPfku9-27" value="拍摄" style="shape=rhombus;perimeter=rhombusPerimeter;whiteSpace=wrap;html=1;align=center;fontFamily=仿宋;" parent="1" vertex="1">
          <mxGeometry x="390" y="169" width="120" height="60" as="geometry" />
        </mxCell>
        <mxCell id="lb9JI9_FD7YLYeVPfku9-28" value="" style="endArrow=none;html=1;rounded=0;exitX=0.5;exitY=0;exitDx=0;exitDy=0;entryX=0.5;entryY=1;entryDx=0;entryDy=0;fontFamily=仿宋;" parent="1" source="lb9JI9_FD7YLYeVPfku9-2" target="lb9JI9_FD7YLYeVPfku9-27" edge="1">
          <mxGeometry relative="1" as="geometry">
            <mxPoint x="510" y="249" as="sourcePoint" />
            <mxPoint x="670" y="249" as="targetPoint" />
          </mxGeometry>
        </mxCell>
        <mxCell id="lb9JI9_FD7YLYeVPfku9-29" value="1" style="resizable=0;html=1;align=right;verticalAlign=bottom;fontFamily=仿宋;" parent="lb9JI9_FD7YLYeVPfku9-28" connectable="0" vertex="1">
          <mxGeometry x="1" relative="1" as="geometry">
            <mxPoint y="30" as="offset" />
          </mxGeometry>
        </mxCell>
        <mxCell id="lb9JI9_FD7YLYeVPfku9-30" value="" style="endArrow=none;html=1;rounded=0;exitX=0.5;exitY=0;exitDx=0;exitDy=0;entryX=0.5;entryY=1;entryDx=0;entryDy=0;fontFamily=仿宋;" parent="1" source="lb9JI9_FD7YLYeVPfku9-27" target="lb9JI9_FD7YLYeVPfku9-5" edge="1">
          <mxGeometry relative="1" as="geometry">
            <mxPoint x="530" y="159" as="sourcePoint" />
            <mxPoint x="690" y="159" as="targetPoint" />
          </mxGeometry>
        </mxCell>
        <mxCell id="lb9JI9_FD7YLYeVPfku9-31" value="N" style="resizable=0;html=1;align=right;verticalAlign=bottom;fontFamily=仿宋;" parent="lb9JI9_FD7YLYeVPfku9-30" connectable="0" vertex="1">
          <mxGeometry x="1" relative="1" as="geometry">
            <mxPoint y="22" as="offset" />
          </mxGeometry>
        </mxCell>
        <mxCell id="lb9JI9_FD7YLYeVPfku9-32" value="上传" style="shape=rhombus;perimeter=rhombusPerimeter;whiteSpace=wrap;html=1;align=center;fontFamily=仿宋;" parent="1" vertex="1">
          <mxGeometry x="550" y="259" width="120" height="60" as="geometry" />
        </mxCell>
        <mxCell id="lb9JI9_FD7YLYeVPfku9-33" value="" style="endArrow=none;html=1;rounded=0;exitX=1;exitY=0.5;exitDx=0;exitDy=0;entryX=0;entryY=0.5;entryDx=0;entryDy=0;fontFamily=仿宋;" parent="1" source="lb9JI9_FD7YLYeVPfku9-2" target="lb9JI9_FD7YLYeVPfku9-32" edge="1">
          <mxGeometry relative="1" as="geometry">
            <mxPoint x="510" y="349" as="sourcePoint" />
            <mxPoint x="670" y="349" as="targetPoint" />
          </mxGeometry>
        </mxCell>
        <mxCell id="lb9JI9_FD7YLYeVPfku9-34" value="1" style="resizable=0;html=1;align=right;verticalAlign=bottom;fontFamily=仿宋;" parent="lb9JI9_FD7YLYeVPfku9-33" connectable="0" vertex="1">
          <mxGeometry x="1" relative="1" as="geometry" />
        </mxCell>
        <mxCell id="lb9JI9_FD7YLYeVPfku9-35" value="" style="endArrow=none;html=1;rounded=0;exitX=1;exitY=0.5;exitDx=0;exitDy=0;entryX=0;entryY=0.5;entryDx=0;entryDy=0;fontFamily=仿宋;" parent="1" source="lb9JI9_FD7YLYeVPfku9-32" target="lb9JI9_FD7YLYeVPfku9-7" edge="1">
          <mxGeometry relative="1" as="geometry">
            <mxPoint x="670" y="288.5" as="sourcePoint" />
            <mxPoint x="830" y="288.5" as="targetPoint" />
          </mxGeometry>
        </mxCell>
        <mxCell id="lb9JI9_FD7YLYeVPfku9-36" value="N" style="resizable=0;html=1;align=right;verticalAlign=bottom;fontFamily=仿宋;" parent="lb9JI9_FD7YLYeVPfku9-35" connectable="0" vertex="1">
          <mxGeometry x="1" relative="1" as="geometry" />
        </mxCell>
        <mxCell id="lb9JI9_FD7YLYeVPfku9-37" value="行走" style="shape=rhombus;perimeter=rhombusPerimeter;whiteSpace=wrap;html=1;align=center;fontFamily=仿宋;" parent="1" vertex="1">
          <mxGeometry x="320" y="359" width="120" height="60" as="geometry" />
        </mxCell>
        <mxCell id="lb9JI9_FD7YLYeVPfku9-38" value="" style="endArrow=none;html=1;rounded=0;exitX=0.5;exitY=1;exitDx=0;exitDy=0;fontFamily=仿宋;" parent="1" source="lb9JI9_FD7YLYeVPfku9-2" target="lb9JI9_FD7YLYeVPfku9-37" edge="1">
          <mxGeometry relative="1" as="geometry">
            <mxPoint x="570" y="429" as="sourcePoint" />
            <mxPoint x="730" y="429" as="targetPoint" />
          </mxGeometry>
        </mxCell>
        <mxCell id="lb9JI9_FD7YLYeVPfku9-39" value="1" style="resizable=0;html=1;align=right;verticalAlign=bottom;fontFamily=仿宋;" parent="lb9JI9_FD7YLYeVPfku9-38" connectable="0" vertex="1">
          <mxGeometry x="1" relative="1" as="geometry" />
        </mxCell>
        <mxCell id="lb9JI9_FD7YLYeVPfku9-40" value="" style="endArrow=none;html=1;rounded=0;exitX=0.5;exitY=1;exitDx=0;exitDy=0;entryX=0.5;entryY=0;entryDx=0;entryDy=0;fontFamily=仿宋;" parent="1" source="lb9JI9_FD7YLYeVPfku9-37" target="lb9JI9_FD7YLYeVPfku9-8" edge="1">
          <mxGeometry relative="1" as="geometry">
            <mxPoint x="400" y="429" as="sourcePoint" />
            <mxPoint x="560" y="429" as="targetPoint" />
          </mxGeometry>
        </mxCell>
        <mxCell id="lb9JI9_FD7YLYeVPfku9-41" value="N" style="resizable=0;html=1;align=right;verticalAlign=bottom;fontFamily=仿宋;" parent="lb9JI9_FD7YLYeVPfku9-40" connectable="0" vertex="1">
          <mxGeometry x="1" relative="1" as="geometry" />
        </mxCell>
        <mxCell id="lb9JI9_FD7YLYeVPfku9-42" value="处理" style="shape=rhombus;perimeter=rhombusPerimeter;whiteSpace=wrap;html=1;align=center;fontFamily=仿宋;" parent="1" vertex="1">
          <mxGeometry x="500" y="359" width="120" height="60" as="geometry" />
        </mxCell>
        <mxCell id="lb9JI9_FD7YLYeVPfku9-43" value="" style="endArrow=none;html=1;rounded=0;entryX=0;entryY=0;entryDx=0;entryDy=0;fontFamily=仿宋;" parent="1" target="lb9JI9_FD7YLYeVPfku9-42" edge="1">
          <mxGeometry relative="1" as="geometry">
            <mxPoint x="450" y="309" as="sourcePoint" />
            <mxPoint x="630" y="339" as="targetPoint" />
          </mxGeometry>
        </mxCell>
        <mxCell id="lb9JI9_FD7YLYeVPfku9-44" value="1" style="resizable=0;html=1;align=right;verticalAlign=bottom;fontFamily=仿宋;" parent="lb9JI9_FD7YLYeVPfku9-43" connectable="0" vertex="1">
          <mxGeometry x="1" relative="1" as="geometry" />
        </mxCell>
        <mxCell id="lb9JI9_FD7YLYeVPfku9-45" value="" style="endArrow=none;html=1;rounded=0;exitX=0.5;exitY=1;exitDx=0;exitDy=0;entryX=0.5;entryY=0;entryDx=0;entryDy=0;fontFamily=仿宋;" parent="1" source="lb9JI9_FD7YLYeVPfku9-42" target="lb9JI9_FD7YLYeVPfku9-9" edge="1">
          <mxGeometry relative="1" as="geometry">
            <mxPoint x="650" y="449" as="sourcePoint" />
            <mxPoint x="560" y="449" as="targetPoint" />
          </mxGeometry>
        </mxCell>
        <mxCell id="lb9JI9_FD7YLYeVPfku9-46" value="N" style="resizable=0;html=1;align=right;verticalAlign=bottom;fontFamily=仿宋;" parent="lb9JI9_FD7YLYeVPfku9-45" connectable="0" vertex="1">
          <mxGeometry x="1" relative="1" as="geometry" />
        </mxCell>
        <mxCell id="lb9JI9_FD7YLYeVPfku9-48" value="上传" style="shape=rhombus;perimeter=rhombusPerimeter;whiteSpace=wrap;html=1;align=center;fontFamily=仿宋;" parent="1" vertex="1">
          <mxGeometry x="420" y="519" width="90" height="60" as="geometry" />
        </mxCell>
        <mxCell id="lb9JI9_FD7YLYeVPfku9-49" value="" style="endArrow=none;html=1;rounded=0;exitX=0.5;exitY=1;exitDx=0;exitDy=0;fontFamily=仿宋;" parent="1" source="lb9JI9_FD7YLYeVPfku9-9" target="lb9JI9_FD7YLYeVPfku9-48" edge="1">
          <mxGeometry relative="1" as="geometry">
            <mxPoint x="570" y="519" as="sourcePoint" />
            <mxPoint x="730" y="519" as="targetPoint" />
          </mxGeometry>
        </mxCell>
        <mxCell id="lb9JI9_FD7YLYeVPfku9-50" value="1" style="resizable=0;html=1;align=right;verticalAlign=bottom;fontFamily=仿宋;" parent="lb9JI9_FD7YLYeVPfku9-49" connectable="0" vertex="1">
          <mxGeometry x="1" relative="1" as="geometry" />
        </mxCell>
        <mxCell id="lb9JI9_FD7YLYeVPfku9-51" value="" style="endArrow=none;html=1;rounded=0;exitX=0.5;exitY=1;exitDx=0;exitDy=0;entryX=0.5;entryY=0;entryDx=0;entryDy=0;fontFamily=仿宋;" parent="1" source="lb9JI9_FD7YLYeVPfku9-48" target="lb9JI9_FD7YLYeVPfku9-10" edge="1">
          <mxGeometry relative="1" as="geometry">
            <mxPoint x="290" y="729" as="sourcePoint" />
            <mxPoint x="450" y="729" as="targetPoint" />
          </mxGeometry>
        </mxCell>
        <mxCell id="lb9JI9_FD7YLYeVPfku9-52" value="N" style="resizable=0;html=1;align=right;verticalAlign=bottom;fontFamily=仿宋;" parent="lb9JI9_FD7YLYeVPfku9-51" connectable="0" vertex="1">
          <mxGeometry x="1" relative="1" as="geometry" />
        </mxCell>
        <mxCell id="lb9JI9_FD7YLYeVPfku9-53" value="拍摄" style="shape=rhombus;perimeter=rhombusPerimeter;whiteSpace=wrap;html=1;align=center;fontFamily=仿宋;" parent="1" vertex="1">
          <mxGeometry x="620" y="519" width="90" height="60" as="geometry" />
        </mxCell>
        <mxCell id="lb9JI9_FD7YLYeVPfku9-54" value="" style="endArrow=none;html=1;rounded=0;entryX=0;entryY=0;entryDx=0;entryDy=0;fontFamily=仿宋;" parent="1" target="lb9JI9_FD7YLYeVPfku9-53" edge="1">
          <mxGeometry relative="1" as="geometry">
            <mxPoint x="560" y="499" as="sourcePoint" />
            <mxPoint x="760" y="709" as="targetPoint" />
          </mxGeometry>
        </mxCell>
        <mxCell id="lb9JI9_FD7YLYeVPfku9-55" value="1" style="resizable=0;html=1;align=right;verticalAlign=bottom;fontFamily=仿宋;" parent="lb9JI9_FD7YLYeVPfku9-54" connectable="0" vertex="1">
          <mxGeometry x="1" relative="1" as="geometry" />
        </mxCell>
        <mxCell id="lb9JI9_FD7YLYeVPfku9-56" value="" style="endArrow=none;html=1;rounded=0;exitX=0.5;exitY=1;exitDx=0;exitDy=0;entryX=0.5;entryY=0;entryDx=0;entryDy=0;fontFamily=仿宋;" parent="1" source="lb9JI9_FD7YLYeVPfku9-53" target="lb9JI9_FD7YLYeVPfku9-11" edge="1">
          <mxGeometry relative="1" as="geometry">
            <mxPoint x="790" y="689" as="sourcePoint" />
            <mxPoint x="950" y="689" as="targetPoint" />
          </mxGeometry>
        </mxCell>
        <mxCell id="lb9JI9_FD7YLYeVPfku9-57" value="N" style="resizable=0;html=1;align=right;verticalAlign=bottom;fontFamily=仿宋;" parent="lb9JI9_FD7YLYeVPfku9-56" connectable="0" vertex="1">
          <mxGeometry x="1" relative="1" as="geometry" />
        </mxCell>
        <mxCell id="lb9JI9_FD7YLYeVPfku9-58" value="执法活动" style="whiteSpace=wrap;html=1;align=center;fontFamily=仿宋;" parent="1" vertex="1">
          <mxGeometry x="1341" y="353" width="100" height="40" as="geometry" />
        </mxCell>
        <mxCell id="Jm6T7WrEDUmx-2x6mj27-1" value="违法事项" style="whiteSpace=wrap;html=1;align=center;fontFamily=仿宋;" vertex="1" parent="1">
          <mxGeometry x="1477" y="259" width="100" height="40" as="geometry" />
        </mxCell>
        <mxCell id="Jm6T7WrEDUmx-2x6mj27-2" value="整改记录" style="whiteSpace=wrap;html=1;align=center;fontFamily=仿宋;" vertex="1" parent="1">
          <mxGeometry x="1477" y="451" width="100" height="40" as="geometry" />
        </mxCell>
        <mxCell id="Jm6T7WrEDUmx-2x6mj27-3" value="公文" style="whiteSpace=wrap;html=1;align=center;fontFamily=仿宋;" vertex="1" parent="1">
          <mxGeometry x="1052" y="276" width="100" height="40" as="geometry" />
        </mxCell>
        <mxCell id="Jm6T7WrEDUmx-2x6mj27-4" value="报告" style="whiteSpace=wrap;html=1;align=center;fontFamily=仿宋;" vertex="1" parent="1">
          <mxGeometry x="1052" y="353" width="100" height="40" as="geometry" />
        </mxCell>
        <mxCell id="Jm6T7WrEDUmx-2x6mj27-5" value="照片" style="whiteSpace=wrap;html=1;align=center;fontFamily=仿宋;" vertex="1" parent="1">
          <mxGeometry x="1052" y="430" width="100" height="40" as="geometry" />
        </mxCell>
        <mxCell id="Jm6T7WrEDUmx-2x6mj27-6" value="违法事项附件" style="whiteSpace=wrap;html=1;align=center;fontFamily=仿宋;" vertex="1" parent="1">
          <mxGeometry x="1753" y="259" width="100" height="40" as="geometry" />
        </mxCell>
        <mxCell id="Jm6T7WrEDUmx-2x6mj27-9" value="整改记录附件" style="whiteSpace=wrap;html=1;align=center;fontFamily=仿宋;" vertex="1" parent="1">
          <mxGeometry x="1753" y="452" width="100" height="40" as="geometry" />
        </mxCell>
        <mxCell id="Jm6T7WrEDUmx-2x6mj27-10" value="水库" style="whiteSpace=wrap;html=1;align=center;fontFamily=仿宋;" vertex="1" parent="1">
          <mxGeometry x="1341" y="170" width="100" height="40" as="geometry" />
        </mxCell>
        <mxCell id="Jm6T7WrEDUmx-2x6mj27-11" value="行政区划" style="whiteSpace=wrap;html=1;align=center;fontFamily=仿宋;" vertex="1" parent="1">
          <mxGeometry x="1052" y="170" width="100" height="40" as="geometry" />
        </mxCell>
        <mxCell id="Jm6T7WrEDUmx-2x6mj27-12" value="违法事项来源" style="whiteSpace=wrap;html=1;align=center;fontFamily=仿宋;" vertex="1" parent="1">
          <mxGeometry x="1477" y="76" width="100" height="40" as="geometry" />
        </mxCell>
        <mxCell id="Jm6T7WrEDUmx-2x6mj27-13" value="所属" style="shape=rhombus;perimeter=rhombusPerimeter;whiteSpace=wrap;html=1;align=center;fontFamily=仿宋;" vertex="1" parent="1">
          <mxGeometry x="1344" y="249" width="94" height="60" as="geometry" />
        </mxCell>
        <mxCell id="Jm6T7WrEDUmx-2x6mj27-14" value="" style="endArrow=none;html=1;rounded=0;exitX=0.5;exitY=1;exitDx=0;exitDy=0;entryX=0.5;entryY=0;entryDx=0;entryDy=0;fontFamily=仿宋;" edge="1" parent="1" source="Jm6T7WrEDUmx-2x6mj27-10" target="Jm6T7WrEDUmx-2x6mj27-13">
          <mxGeometry relative="1" as="geometry">
            <mxPoint x="1481" y="254" as="sourcePoint" />
            <mxPoint x="1641" y="254" as="targetPoint" />
          </mxGeometry>
        </mxCell>
        <mxCell id="Jm6T7WrEDUmx-2x6mj27-15" value="1" style="resizable=0;html=1;align=right;verticalAlign=bottom;fontFamily=仿宋;" connectable="0" vertex="1" parent="Jm6T7WrEDUmx-2x6mj27-14">
          <mxGeometry x="1" relative="1" as="geometry" />
        </mxCell>
        <mxCell id="Jm6T7WrEDUmx-2x6mj27-16" value="" style="endArrow=none;html=1;rounded=0;exitX=0.5;exitY=1;exitDx=0;exitDy=0;fontFamily=仿宋;" edge="1" parent="1" source="Jm6T7WrEDUmx-2x6mj27-13" target="lb9JI9_FD7YLYeVPfku9-58">
          <mxGeometry relative="1" as="geometry">
            <mxPoint x="1520" y="314" as="sourcePoint" />
            <mxPoint x="1680" y="314" as="targetPoint" />
          </mxGeometry>
        </mxCell>
        <mxCell id="Jm6T7WrEDUmx-2x6mj27-17" value="N" style="resizable=0;html=1;align=right;verticalAlign=bottom;fontFamily=仿宋;" connectable="0" vertex="1" parent="Jm6T7WrEDUmx-2x6mj27-16">
          <mxGeometry x="1" relative="1" as="geometry" />
        </mxCell>
        <mxCell id="Jm6T7WrEDUmx-2x6mj27-19" value="来源" style="shape=rhombus;perimeter=rhombusPerimeter;whiteSpace=wrap;html=1;align=center;fontFamily=仿宋;" vertex="1" parent="1">
          <mxGeometry x="1480" y="155" width="94" height="60" as="geometry" />
        </mxCell>
        <mxCell id="Jm6T7WrEDUmx-2x6mj27-20" value="" style="endArrow=none;html=1;rounded=0;exitX=0.5;exitY=1;exitDx=0;exitDy=0;fontFamily=仿宋;" edge="1" parent="1" source="Jm6T7WrEDUmx-2x6mj27-12" target="Jm6T7WrEDUmx-2x6mj27-19">
          <mxGeometry relative="1" as="geometry">
            <mxPoint x="1595" y="174" as="sourcePoint" />
            <mxPoint x="1755" y="174" as="targetPoint" />
          </mxGeometry>
        </mxCell>
        <mxCell id="Jm6T7WrEDUmx-2x6mj27-21" value="1" style="resizable=0;html=1;align=right;verticalAlign=bottom;fontFamily=仿宋;" connectable="0" vertex="1" parent="Jm6T7WrEDUmx-2x6mj27-20">
          <mxGeometry x="1" relative="1" as="geometry" />
        </mxCell>
        <mxCell id="Jm6T7WrEDUmx-2x6mj27-22" value="" style="endArrow=none;html=1;rounded=0;exitX=0.5;exitY=1;exitDx=0;exitDy=0;fontFamily=仿宋;" edge="1" parent="1" source="Jm6T7WrEDUmx-2x6mj27-19" target="Jm6T7WrEDUmx-2x6mj27-1">
          <mxGeometry relative="1" as="geometry">
            <mxPoint x="1609" y="214" as="sourcePoint" />
            <mxPoint x="1783" y="214" as="targetPoint" />
          </mxGeometry>
        </mxCell>
        <mxCell id="Jm6T7WrEDUmx-2x6mj27-23" value="N" style="resizable=0;html=1;align=right;verticalAlign=bottom;fontFamily=仿宋;" connectable="0" vertex="1" parent="Jm6T7WrEDUmx-2x6mj27-22">
          <mxGeometry x="1" relative="1" as="geometry" />
        </mxCell>
        <mxCell id="Jm6T7WrEDUmx-2x6mj27-24" value="整改" style="shape=rhombus;perimeter=rhombusPerimeter;whiteSpace=wrap;html=1;align=center;fontFamily=仿宋;" vertex="1" parent="1">
          <mxGeometry x="1480" y="342" width="94" height="60" as="geometry" />
        </mxCell>
        <mxCell id="Jm6T7WrEDUmx-2x6mj27-25" value="" style="endArrow=none;html=1;rounded=0;exitX=0.5;exitY=1;exitDx=0;exitDy=0;fontFamily=仿宋;" edge="1" parent="1" source="Jm6T7WrEDUmx-2x6mj27-1" target="Jm6T7WrEDUmx-2x6mj27-24">
          <mxGeometry relative="1" as="geometry">
            <mxPoint x="1561" y="334" as="sourcePoint" />
            <mxPoint x="1721" y="334" as="targetPoint" />
          </mxGeometry>
        </mxCell>
        <mxCell id="Jm6T7WrEDUmx-2x6mj27-26" value="1" style="resizable=0;html=1;align=right;verticalAlign=bottom;fontFamily=仿宋;" connectable="0" vertex="1" parent="Jm6T7WrEDUmx-2x6mj27-25">
          <mxGeometry x="1" relative="1" as="geometry" />
        </mxCell>
        <mxCell id="Jm6T7WrEDUmx-2x6mj27-27" value="" style="endArrow=none;html=1;rounded=0;exitX=0.5;exitY=1;exitDx=0;exitDy=0;entryX=0.5;entryY=0;entryDx=0;entryDy=0;fontFamily=仿宋;" edge="1" parent="1" source="Jm6T7WrEDUmx-2x6mj27-24" target="Jm6T7WrEDUmx-2x6mj27-2">
          <mxGeometry relative="1" as="geometry">
            <mxPoint x="1596" y="372" as="sourcePoint" />
            <mxPoint x="1756" y="372" as="targetPoint" />
          </mxGeometry>
        </mxCell>
        <mxCell id="Jm6T7WrEDUmx-2x6mj27-28" value="N" style="resizable=0;html=1;align=right;verticalAlign=bottom;fontFamily=仿宋;" connectable="0" vertex="1" parent="Jm6T7WrEDUmx-2x6mj27-27">
          <mxGeometry x="1" relative="1" as="geometry" />
        </mxCell>
        <mxCell id="Jm6T7WrEDUmx-2x6mj27-32" value="上传" style="shape=rhombus;perimeter=rhombusPerimeter;whiteSpace=wrap;html=1;align=center;fontFamily=仿宋;" vertex="1" parent="1">
          <mxGeometry x="1620" y="249" width="94" height="60" as="geometry" />
        </mxCell>
        <mxCell id="Jm6T7WrEDUmx-2x6mj27-33" value="" style="endArrow=none;html=1;rounded=0;exitX=1;exitY=0.5;exitDx=0;exitDy=0;entryX=0.011;entryY=0.483;entryDx=0;entryDy=0;entryPerimeter=0;fontFamily=仿宋;" edge="1" parent="1" source="Jm6T7WrEDUmx-2x6mj27-1" target="Jm6T7WrEDUmx-2x6mj27-32">
          <mxGeometry relative="1" as="geometry">
            <mxPoint x="1601" y="348" as="sourcePoint" />
            <mxPoint x="1761" y="348" as="targetPoint" />
          </mxGeometry>
        </mxCell>
        <mxCell id="Jm6T7WrEDUmx-2x6mj27-34" value="1" style="resizable=0;html=1;align=right;verticalAlign=bottom;fontFamily=仿宋;" connectable="0" vertex="1" parent="Jm6T7WrEDUmx-2x6mj27-33">
          <mxGeometry x="1" relative="1" as="geometry" />
        </mxCell>
        <mxCell id="Jm6T7WrEDUmx-2x6mj27-35" value="" style="endArrow=none;html=1;rounded=0;exitX=1;exitY=0.5;exitDx=0;exitDy=0;entryX=0;entryY=0.5;entryDx=0;entryDy=0;fontFamily=仿宋;" edge="1" parent="1" source="Jm6T7WrEDUmx-2x6mj27-32" target="Jm6T7WrEDUmx-2x6mj27-6">
          <mxGeometry relative="1" as="geometry">
            <mxPoint x="1679" y="383" as="sourcePoint" />
            <mxPoint x="1839" y="383" as="targetPoint" />
          </mxGeometry>
        </mxCell>
        <mxCell id="Jm6T7WrEDUmx-2x6mj27-36" value="N" style="resizable=0;html=1;align=right;verticalAlign=bottom;fontFamily=仿宋;" connectable="0" vertex="1" parent="Jm6T7WrEDUmx-2x6mj27-35">
          <mxGeometry x="1" relative="1" as="geometry" />
        </mxCell>
        <mxCell id="Jm6T7WrEDUmx-2x6mj27-37" value="上传" style="shape=rhombus;perimeter=rhombusPerimeter;whiteSpace=wrap;html=1;align=center;fontFamily=仿宋;" vertex="1" parent="1">
          <mxGeometry x="1620" y="442" width="94" height="60" as="geometry" />
        </mxCell>
        <mxCell id="Jm6T7WrEDUmx-2x6mj27-38" value="" style="endArrow=none;html=1;rounded=0;entryX=0;entryY=0.5;entryDx=0;entryDy=0;fontFamily=仿宋;" edge="1" parent="1" source="Jm6T7WrEDUmx-2x6mj27-2" target="Jm6T7WrEDUmx-2x6mj27-37">
          <mxGeometry relative="1" as="geometry">
            <mxPoint x="1577" y="471" as="sourcePoint" />
            <mxPoint x="1737" y="471" as="targetPoint" />
          </mxGeometry>
        </mxCell>
        <mxCell id="Jm6T7WrEDUmx-2x6mj27-39" value="1" style="resizable=0;html=1;align=right;verticalAlign=bottom;fontFamily=仿宋;" connectable="0" vertex="1" parent="Jm6T7WrEDUmx-2x6mj27-38">
          <mxGeometry x="1" relative="1" as="geometry" />
        </mxCell>
        <mxCell id="Jm6T7WrEDUmx-2x6mj27-40" value="" style="endArrow=none;html=1;rounded=0;exitX=1;exitY=0.5;exitDx=0;exitDy=0;entryX=0;entryY=0.5;entryDx=0;entryDy=0;fontFamily=仿宋;" edge="1" parent="1" source="Jm6T7WrEDUmx-2x6mj27-37" target="Jm6T7WrEDUmx-2x6mj27-9">
          <mxGeometry relative="1" as="geometry">
            <mxPoint x="1737" y="500" as="sourcePoint" />
            <mxPoint x="1897" y="500" as="targetPoint" />
          </mxGeometry>
        </mxCell>
        <mxCell id="Jm6T7WrEDUmx-2x6mj27-41" value="N" style="resizable=0;html=1;align=right;verticalAlign=bottom;fontFamily=仿宋;" connectable="0" vertex="1" parent="Jm6T7WrEDUmx-2x6mj27-40">
          <mxGeometry x="1" relative="1" as="geometry" />
        </mxCell>
        <mxCell id="Jm6T7WrEDUmx-2x6mj27-42" value="拥有" style="shape=rhombus;perimeter=rhombusPerimeter;whiteSpace=wrap;html=1;align=center;fontFamily=仿宋;" vertex="1" parent="1">
          <mxGeometry x="1202" y="160" width="94" height="60" as="geometry" />
        </mxCell>
        <mxCell id="Jm6T7WrEDUmx-2x6mj27-43" value="" style="endArrow=none;html=1;rounded=0;exitX=1;exitY=0.5;exitDx=0;exitDy=0;fontFamily=仿宋;" edge="1" parent="1" source="Jm6T7WrEDUmx-2x6mj27-11" target="Jm6T7WrEDUmx-2x6mj27-42">
          <mxGeometry relative="1" as="geometry">
            <mxPoint x="1123" y="336" as="sourcePoint" />
            <mxPoint x="1283" y="336" as="targetPoint" />
          </mxGeometry>
        </mxCell>
        <mxCell id="Jm6T7WrEDUmx-2x6mj27-44" value="1" style="resizable=0;html=1;align=right;verticalAlign=bottom;fontFamily=仿宋;" connectable="0" vertex="1" parent="Jm6T7WrEDUmx-2x6mj27-43">
          <mxGeometry x="1" relative="1" as="geometry" />
        </mxCell>
        <mxCell id="Jm6T7WrEDUmx-2x6mj27-45" value="" style="endArrow=none;html=1;rounded=0;exitX=1;exitY=0.5;exitDx=0;exitDy=0;entryX=0;entryY=0.5;entryDx=0;entryDy=0;fontFamily=仿宋;" edge="1" parent="1" source="Jm6T7WrEDUmx-2x6mj27-42" target="Jm6T7WrEDUmx-2x6mj27-10">
          <mxGeometry relative="1" as="geometry">
            <mxPoint x="1222" y="289" as="sourcePoint" />
            <mxPoint x="1382" y="289" as="targetPoint" />
          </mxGeometry>
        </mxCell>
        <mxCell id="Jm6T7WrEDUmx-2x6mj27-46" value="N" style="resizable=0;html=1;align=right;verticalAlign=bottom;fontFamily=仿宋;" connectable="0" vertex="1" parent="Jm6T7WrEDUmx-2x6mj27-45">
          <mxGeometry x="1" relative="1" as="geometry" />
        </mxCell>
        <mxCell id="Jm6T7WrEDUmx-2x6mj27-48" value="记录" style="shape=rhombus;perimeter=rhombusPerimeter;whiteSpace=wrap;html=1;align=center;fontFamily=仿宋;" vertex="1" parent="1">
          <mxGeometry x="1344" y="442" width="94" height="60" as="geometry" />
        </mxCell>
        <mxCell id="Jm6T7WrEDUmx-2x6mj27-49" value="" style="endArrow=none;html=1;rounded=0;exitX=0.5;exitY=1;exitDx=0;exitDy=0;entryX=0.5;entryY=0;entryDx=0;entryDy=0;fontFamily=仿宋;" edge="1" parent="1" source="lb9JI9_FD7YLYeVPfku9-58" target="Jm6T7WrEDUmx-2x6mj27-48">
          <mxGeometry relative="1" as="geometry">
            <mxPoint x="1441" y="435" as="sourcePoint" />
            <mxPoint x="1601" y="435" as="targetPoint" />
          </mxGeometry>
        </mxCell>
        <mxCell id="Jm6T7WrEDUmx-2x6mj27-50" value="1" style="resizable=0;html=1;align=right;verticalAlign=bottom;fontFamily=仿宋;" connectable="0" vertex="1" parent="Jm6T7WrEDUmx-2x6mj27-49">
          <mxGeometry x="1" relative="1" as="geometry" />
        </mxCell>
        <mxCell id="Jm6T7WrEDUmx-2x6mj27-51" value="" style="endArrow=none;html=1;rounded=0;exitX=1;exitY=0.5;exitDx=0;exitDy=0;entryX=0;entryY=0.5;entryDx=0;entryDy=0;fontFamily=仿宋;" edge="1" parent="1" source="Jm6T7WrEDUmx-2x6mj27-48" target="Jm6T7WrEDUmx-2x6mj27-2">
          <mxGeometry relative="1" as="geometry">
            <mxPoint x="1293" y="474" as="sourcePoint" />
            <mxPoint x="1453" y="474" as="targetPoint" />
          </mxGeometry>
        </mxCell>
        <mxCell id="Jm6T7WrEDUmx-2x6mj27-52" value="N" style="resizable=0;html=1;align=right;verticalAlign=bottom;fontFamily=仿宋;" connectable="0" vertex="1" parent="Jm6T7WrEDUmx-2x6mj27-51">
          <mxGeometry x="1" relative="1" as="geometry" />
        </mxCell>
        <mxCell id="Jm6T7WrEDUmx-2x6mj27-60" value="送达回证" style="whiteSpace=wrap;html=1;align=center;fontFamily=仿宋;fontSize=14;" vertex="1" parent="1">
          <mxGeometry x="695" y="1136" width="100" height="40" as="geometry" />
        </mxCell>
        <mxCell id="Jm6T7WrEDUmx-2x6mj27-87" value="责令停止水事违法行为通知书" style="whiteSpace=wrap;html=1;align=center;fontFamily=仿宋;fontSize=14;" vertex="1" parent="1">
          <mxGeometry x="1113" y="1331" width="100" height="40" as="geometry" />
        </mxCell>
        <mxCell id="Jm6T7WrEDUmx-2x6mj27-111" value="案件举报记录" style="whiteSpace=wrap;html=1;align=center;fontFamily=仿宋;fontSize=14;" vertex="1" parent="1">
          <mxGeometry x="542" y="1136" width="100" height="40" as="geometry" />
        </mxCell>
        <mxCell id="Jm6T7WrEDUmx-2x6mj27-112" value="案件举报情况" style="whiteSpace=wrap;html=1;align=center;fontFamily=仿宋;fontSize=14;" vertex="1" parent="1">
          <mxGeometry x="543" y="1191" width="100" height="40" as="geometry" />
        </mxCell>
        <mxCell id="Jm6T7WrEDUmx-2x6mj27-114" value="" style="edgeStyle=entityRelationEdgeStyle;fontSize=14;html=1;endArrow=ERoneToMany;exitX=1;exitY=0.475;exitDx=0;exitDy=0;exitPerimeter=0;" edge="1" parent="1" source="Jm6T7WrEDUmx-2x6mj27-111" target="Jm6T7WrEDUmx-2x6mj27-112">
          <mxGeometry width="100" height="100" relative="1" as="geometry">
            <mxPoint x="643" y="1305" as="sourcePoint" />
            <mxPoint x="743" y="1205" as="targetPoint" />
          </mxGeometry>
        </mxCell>
        <mxCell id="Jm6T7WrEDUmx-2x6mj27-115" value="" style="edgeStyle=entityRelationEdgeStyle;fontSize=14;html=1;endArrow=ERoneToMany;" edge="1" parent="1" source="Jm6T7WrEDUmx-2x6mj27-111" target="Jm6T7WrEDUmx-2x6mj27-60">
          <mxGeometry width="100" height="100" relative="1" as="geometry">
            <mxPoint x="668" y="1316" as="sourcePoint" />
            <mxPoint x="768" y="1216" as="targetPoint" />
          </mxGeometry>
        </mxCell>
        <mxCell id="Jm6T7WrEDUmx-2x6mj27-116" value="初始业务记录" style="whiteSpace=wrap;html=1;align=center;fontFamily=仿宋;fontSize=14;" vertex="1" parent="1">
          <mxGeometry x="1111" y="1137" width="100" height="40" as="geometry" />
        </mxCell>
        <mxCell id="Jm6T7WrEDUmx-2x6mj27-161" value="" style="group;fontSize=14;" vertex="1" connectable="0" parent="1">
          <mxGeometry x="820" y="904" width="259" height="506" as="geometry" />
        </mxCell>
        <mxCell id="Jm6T7WrEDUmx-2x6mj27-160" value="" style="rounded=0;whiteSpace=wrap;html=1;fontFamily=仿宋;opacity=40;fontSize=14;" vertex="1" parent="Jm6T7WrEDUmx-2x6mj27-161">
          <mxGeometry width="259" height="506" as="geometry" />
        </mxCell>
        <mxCell id="Jm6T7WrEDUmx-2x6mj27-59" value="现场取样凭证" style="whiteSpace=wrap;html=1;align=center;fontFamily=仿宋;fontSize=14;" vertex="1" parent="Jm6T7WrEDUmx-2x6mj27-161">
          <mxGeometry x="15" y="21" width="100" height="40" as="geometry" />
        </mxCell>
        <mxCell id="Jm6T7WrEDUmx-2x6mj27-61" value="登记保存证据通知书" style="whiteSpace=wrap;html=1;align=center;fontFamily=仿宋;fontSize=14;" vertex="1" parent="Jm6T7WrEDUmx-2x6mj27-161">
          <mxGeometry x="15" y="72" width="100" height="40" as="geometry" />
        </mxCell>
        <mxCell id="Jm6T7WrEDUmx-2x6mj27-63" value="听证通知书" style="whiteSpace=wrap;html=1;align=center;fontFamily=仿宋;fontSize=14;" vertex="1" parent="Jm6T7WrEDUmx-2x6mj27-161">
          <mxGeometry x="15" y="125" width="100" height="40" as="geometry" />
        </mxCell>
        <mxCell id="Jm6T7WrEDUmx-2x6mj27-64" value="水行政处罚决定书" style="whiteSpace=wrap;html=1;align=center;fontFamily=仿宋;fontSize=14;" vertex="1" parent="Jm6T7WrEDUmx-2x6mj27-161">
          <mxGeometry x="15" y="177" width="100" height="40" as="geometry" />
        </mxCell>
        <mxCell id="Jm6T7WrEDUmx-2x6mj27-65" value="水行政处罚告知书" style="whiteSpace=wrap;html=1;align=center;fontFamily=仿宋;fontSize=14;" vertex="1" parent="Jm6T7WrEDUmx-2x6mj27-161">
          <mxGeometry x="16" y="227" width="100" height="40" as="geometry" />
        </mxCell>
        <mxCell id="Jm6T7WrEDUmx-2x6mj27-71" value="水行政处罚强制执行申请书" style="whiteSpace=wrap;html=1;align=center;fontFamily=仿宋;fontSize=14;" vertex="1" parent="Jm6T7WrEDUmx-2x6mj27-161">
          <mxGeometry x="15" y="334" width="100" height="40" as="geometry" />
        </mxCell>
        <mxCell id="Jm6T7WrEDUmx-2x6mj27-72" value="水行政强制中止恢复执行决定书" style="whiteSpace=wrap;html=1;align=center;fontFamily=仿宋;fontSize=14;" vertex="1" parent="Jm6T7WrEDUmx-2x6mj27-161">
          <mxGeometry x="15" y="386" width="100" height="40" as="geometry" />
        </mxCell>
        <mxCell id="Jm6T7WrEDUmx-2x6mj27-73" value="水行政强制代履行决定书" style="whiteSpace=wrap;html=1;align=center;fontFamily=仿宋;fontSize=14;" vertex="1" parent="Jm6T7WrEDUmx-2x6mj27-161">
          <mxGeometry x="15" y="437" width="100" height="40" as="geometry" />
        </mxCell>
        <mxCell id="Jm6T7WrEDUmx-2x6mj27-74" value="水行政强制执行中止（终结）决定书" style="whiteSpace=wrap;html=1;align=center;fontFamily=仿宋;fontSize=14;" vertex="1" parent="Jm6T7WrEDUmx-2x6mj27-161">
          <mxGeometry x="141" y="17" width="100" height="40" as="geometry" />
        </mxCell>
        <mxCell id="Jm6T7WrEDUmx-2x6mj27-75" value="水行政强制执行催告书" style="whiteSpace=wrap;html=1;align=center;fontFamily=仿宋;fontSize=14;" vertex="1" parent="Jm6T7WrEDUmx-2x6mj27-161">
          <mxGeometry x="141" y="69" width="100" height="40" as="geometry" />
        </mxCell>
        <mxCell id="Jm6T7WrEDUmx-2x6mj27-76" value="水行政强制执行公告" style="whiteSpace=wrap;html=1;align=center;fontFamily=仿宋;fontSize=14;" vertex="1" parent="Jm6T7WrEDUmx-2x6mj27-161">
          <mxGeometry x="140" y="119" width="100" height="40" as="geometry" />
        </mxCell>
        <mxCell id="Jm6T7WrEDUmx-2x6mj27-77" value="水行政强制执行决定书" style="whiteSpace=wrap;html=1;align=center;fontFamily=仿宋;fontSize=14;" vertex="1" parent="Jm6T7WrEDUmx-2x6mj27-161">
          <mxGeometry x="141" y="170" width="100" height="40" as="geometry" />
        </mxCell>
        <mxCell id="Jm6T7WrEDUmx-2x6mj27-83" value="延长扣押期限决定书" style="whiteSpace=wrap;html=1;align=center;fontFamily=仿宋;fontSize=14;" vertex="1" parent="Jm6T7WrEDUmx-2x6mj27-161">
          <mxGeometry x="141" y="225" width="100" height="40" as="geometry" />
        </mxCell>
        <mxCell id="Jm6T7WrEDUmx-2x6mj27-84" value="扣押物品清单" style="whiteSpace=wrap;html=1;align=center;fontFamily=仿宋;fontSize=14;" vertex="1" parent="Jm6T7WrEDUmx-2x6mj27-161">
          <mxGeometry x="139" y="276" width="100" height="40" as="geometry" />
        </mxCell>
        <mxCell id="Jm6T7WrEDUmx-2x6mj27-85" value="船舶扣押决定书" style="whiteSpace=wrap;html=1;align=center;fontFamily=仿宋;fontSize=14;" vertex="1" parent="Jm6T7WrEDUmx-2x6mj27-161">
          <mxGeometry x="141" y="337" width="100" height="40" as="geometry" />
        </mxCell>
        <mxCell id="Jm6T7WrEDUmx-2x6mj27-86" value="解除扣押决定书" style="whiteSpace=wrap;html=1;align=center;fontFamily=仿宋;fontSize=14;" vertex="1" parent="Jm6T7WrEDUmx-2x6mj27-161">
          <mxGeometry x="140" y="395" width="100" height="40" as="geometry" />
        </mxCell>
        <mxCell id="Jm6T7WrEDUmx-2x6mj27-90" value="水事违法案件移送通知书" style="whiteSpace=wrap;html=1;align=center;fontFamily=仿宋;fontSize=14;" vertex="1" parent="Jm6T7WrEDUmx-2x6mj27-161">
          <mxGeometry x="139" y="449" width="100" height="40" as="geometry" />
        </mxCell>
        <mxCell id="Jm6T7WrEDUmx-2x6mj27-68" value="水事违法案件行政处罚审签表" style="whiteSpace=wrap;html=1;align=center;fontFamily=仿宋;fontSize=14;" vertex="1" parent="Jm6T7WrEDUmx-2x6mj27-161">
          <mxGeometry x="16" y="281" width="100" height="40" as="geometry" />
        </mxCell>
        <mxCell id="Jm6T7WrEDUmx-2x6mj27-162" value="" style="edgeStyle=entityRelationEdgeStyle;fontSize=14;html=1;endArrow=ERoneToMany;exitX=0.99;exitY=0.525;exitDx=0;exitDy=0;exitPerimeter=0;" edge="1" parent="1" source="Jm6T7WrEDUmx-2x6mj27-60" target="Jm6T7WrEDUmx-2x6mj27-160">
          <mxGeometry width="100" height="100" relative="1" as="geometry">
            <mxPoint x="700" y="1328" as="sourcePoint" />
            <mxPoint x="800" y="1228" as="targetPoint" />
          </mxGeometry>
        </mxCell>
        <mxCell id="Jm6T7WrEDUmx-2x6mj27-163" value="" style="edgeStyle=entityRelationEdgeStyle;fontSize=14;html=1;endArrow=ERoneToMany;" edge="1" parent="1" source="Jm6T7WrEDUmx-2x6mj27-116" target="Jm6T7WrEDUmx-2x6mj27-160">
          <mxGeometry width="100" height="100" relative="1" as="geometry">
            <mxPoint x="1190" y="1381" as="sourcePoint" />
            <mxPoint x="1290" y="1281" as="targetPoint" />
          </mxGeometry>
        </mxCell>
        <mxCell id="Jm6T7WrEDUmx-2x6mj27-164" value="" style="edgeStyle=entityRelationEdgeStyle;fontSize=14;html=1;endArrow=ERoneToMany;" edge="1" parent="1" source="Jm6T7WrEDUmx-2x6mj27-116" target="Jm6T7WrEDUmx-2x6mj27-139">
          <mxGeometry width="100" height="100" relative="1" as="geometry">
            <mxPoint x="1101" y="1353" as="sourcePoint" />
            <mxPoint x="1201" y="1253" as="targetPoint" />
          </mxGeometry>
        </mxCell>
        <mxCell id="Jm6T7WrEDUmx-2x6mj27-165" value="" style="group" vertex="1" connectable="0" parent="1">
          <mxGeometry x="1253" y="905" width="270" height="501" as="geometry" />
        </mxCell>
        <mxCell id="Jm6T7WrEDUmx-2x6mj27-67" value="水事违法案件行政处罚内部审签表" style="whiteSpace=wrap;html=1;align=center;fontFamily=仿宋;" vertex="1" parent="Jm6T7WrEDUmx-2x6mj27-165">
          <mxGeometry x="22" y="423" width="100" height="40" as="geometry" />
        </mxCell>
        <mxCell id="Jm6T7WrEDUmx-2x6mj27-139" value="" style="rounded=0;whiteSpace=wrap;html=1;fontFamily=仿宋;opacity=40;fontSize=14;" vertex="1" parent="Jm6T7WrEDUmx-2x6mj27-165">
          <mxGeometry width="270" height="501" as="geometry" />
        </mxCell>
        <mxCell id="Jm6T7WrEDUmx-2x6mj27-53" value="初步调查报告" style="whiteSpace=wrap;html=1;align=center;fontFamily=仿宋;fontSize=14;" vertex="1" parent="Jm6T7WrEDUmx-2x6mj27-165">
          <mxGeometry x="20" y="20" width="100" height="40" as="geometry" />
        </mxCell>
        <mxCell id="Jm6T7WrEDUmx-2x6mj27-54" value="水事违法案件立案呈批表" style="whiteSpace=wrap;html=1;align=center;fontFamily=仿宋;fontSize=14;" vertex="1" parent="Jm6T7WrEDUmx-2x6mj27-165">
          <mxGeometry x="23" y="272" width="100" height="40" as="geometry" />
        </mxCell>
        <mxCell id="Jm6T7WrEDUmx-2x6mj27-55" value="调查审批表" style="whiteSpace=wrap;html=1;align=center;fontFamily=仿宋;fontSize=14;" vertex="1" parent="Jm6T7WrEDUmx-2x6mj27-165">
          <mxGeometry x="21" y="72" width="100" height="40" as="geometry" />
        </mxCell>
        <mxCell id="Jm6T7WrEDUmx-2x6mj27-56" value="调查报告" style="whiteSpace=wrap;html=1;align=center;fontFamily=仿宋;fontSize=14;" vertex="1" parent="Jm6T7WrEDUmx-2x6mj27-165">
          <mxGeometry x="20" y="121" width="100" height="40" as="geometry" />
        </mxCell>
        <mxCell id="Jm6T7WrEDUmx-2x6mj27-57" value="现场检查（查勘）笔录" style="whiteSpace=wrap;html=1;align=center;fontFamily=仿宋;fontSize=14;" vertex="1" parent="Jm6T7WrEDUmx-2x6mj27-165">
          <mxGeometry x="21" y="221" width="100" height="40" as="geometry" />
        </mxCell>
        <mxCell id="Jm6T7WrEDUmx-2x6mj27-58" value="调查询问笔录" style="whiteSpace=wrap;html=1;align=center;fontFamily=仿宋;fontSize=14;" vertex="1" parent="Jm6T7WrEDUmx-2x6mj27-165">
          <mxGeometry x="21" y="172" width="100" height="40" as="geometry" />
        </mxCell>
        <mxCell id="Jm6T7WrEDUmx-2x6mj27-62" value="调查报告审批表" style="whiteSpace=wrap;html=1;align=center;fontFamily=仿宋;fontSize=14;" vertex="1" parent="Jm6T7WrEDUmx-2x6mj27-165">
          <mxGeometry x="23" y="372" width="100" height="40" as="geometry" />
        </mxCell>
        <mxCell id="Jm6T7WrEDUmx-2x6mj27-66" value="听证笔录" style="whiteSpace=wrap;html=1;align=center;fontFamily=仿宋;fontSize=14;" vertex="1" parent="Jm6T7WrEDUmx-2x6mj27-165">
          <mxGeometry x="23" y="321" width="100" height="40" as="geometry" />
        </mxCell>
        <mxCell id="Jm6T7WrEDUmx-2x6mj27-70" value="重大水事违法案件集体讨论记录" style="whiteSpace=wrap;html=1;align=center;fontFamily=仿宋;fontSize=14;" vertex="1" parent="Jm6T7WrEDUmx-2x6mj27-165">
          <mxGeometry x="146" y="24" width="100" height="40" as="geometry" />
        </mxCell>
        <mxCell id="Jm6T7WrEDUmx-2x6mj27-78" value="水事违法案件行政强制执行中止（终结）审批表" style="whiteSpace=wrap;html=1;align=center;fontFamily=仿宋;fontSize=14;" vertex="1" parent="Jm6T7WrEDUmx-2x6mj27-165">
          <mxGeometry x="146" y="77" width="100" height="40" as="geometry" />
        </mxCell>
        <mxCell id="Jm6T7WrEDUmx-2x6mj27-79" value="水事违法案件行政强制执行审批表" style="whiteSpace=wrap;html=1;align=center;fontFamily=仿宋;fontSize=14;" vertex="1" parent="Jm6T7WrEDUmx-2x6mj27-165">
          <mxGeometry x="147" y="182" width="100" height="40" as="geometry" />
        </mxCell>
        <mxCell id="Jm6T7WrEDUmx-2x6mj27-80" value="水行政强制执行中止恢复审批表" style="whiteSpace=wrap;html=1;align=center;fontFamily=仿宋;fontSize=14;" vertex="1" parent="Jm6T7WrEDUmx-2x6mj27-165">
          <mxGeometry x="146" y="131" width="100" height="40" as="geometry" />
        </mxCell>
        <mxCell id="Jm6T7WrEDUmx-2x6mj27-81" value="水事违法案件结案审批表" style="whiteSpace=wrap;html=1;align=center;fontFamily=仿宋;fontSize=14;" vertex="1" parent="Jm6T7WrEDUmx-2x6mj27-165">
          <mxGeometry x="147" y="233" width="100" height="40" as="geometry" />
        </mxCell>
        <mxCell id="Jm6T7WrEDUmx-2x6mj27-82" value="结案报告" style="whiteSpace=wrap;html=1;align=center;fontFamily=仿宋;fontSize=14;" vertex="1" parent="Jm6T7WrEDUmx-2x6mj27-165">
          <mxGeometry x="144" y="393" width="100" height="40" as="geometry" />
        </mxCell>
        <mxCell id="Jm6T7WrEDUmx-2x6mj27-88" value="实施水行政强制措施现场笔录" style="whiteSpace=wrap;html=1;align=center;fontFamily=仿宋;fontSize=14;" vertex="1" parent="Jm6T7WrEDUmx-2x6mj27-165">
          <mxGeometry x="146" y="285" width="100" height="40" as="geometry" />
        </mxCell>
        <mxCell id="Jm6T7WrEDUmx-2x6mj27-89" value="水事违法案件行政强制措施审批表" style="whiteSpace=wrap;html=1;align=center;fontFamily=仿宋;fontSize=14;" vertex="1" parent="Jm6T7WrEDUmx-2x6mj27-165">
          <mxGeometry x="144" y="339" width="100" height="40" as="geometry" />
        </mxCell>
        <mxCell id="Jm6T7WrEDUmx-2x6mj27-166" value="案件记录" style="whiteSpace=wrap;html=1;align=center;fontFamily=仿宋;fontSize=14;" vertex="1" parent="1">
          <mxGeometry x="1110" y="1237" width="100" height="40" as="geometry" />
        </mxCell>
        <mxCell id="Jm6T7WrEDUmx-2x6mj27-172" value="" style="edgeStyle=entityRelationEdgeStyle;fontSize=12;html=1;endArrow=ERmandOne;startArrow=ERmandOne;" edge="1" parent="1" source="Jm6T7WrEDUmx-2x6mj27-87" target="Jm6T7WrEDUmx-2x6mj27-166">
          <mxGeometry width="100" height="100" relative="1" as="geometry">
            <mxPoint x="1167" y="1489" as="sourcePoint" />
            <mxPoint x="1267" y="1389" as="targetPoint" />
          </mxGeometry>
        </mxCell>
      </root>
    </mxGraphModel>
  </diagram>
</mxfile>
